<?xml version="1.0" encoding="utf-8"?>
<!-- Generator: Adobe Illustrator 25.0.0, SVG Export Plug-In . SVG Version: 6.00 Build 0)  -->
<svg version="1.1" id="Layer_1" xmlns="http://www.w3.org/2000/svg" xmlns:xlink="http://www.w3.org/1999/xlink" x="0px" y="0px"
	 viewBox="0 0 273.19 96.88" style="enable-background:new 0 0 273.19 96.88;" xml:space="preserve">
<style type="text/css">
	.st0{fill:#FFFFFF;}
	.st1{fill:#FFA400;}
</style>
<g>
	<g>
		<path class="st0" d="M17.66,91.56h12.33c-3.26-3.27-5.27-7.77-5.27-12.73V62.37h-1.94c-3.52,0-6.73-2.07-8.16-5.28
			c-0.53-1.19-0.8-2.44-0.79-3.73c0-0.85,0.12-1.7,0.38-2.52c0.05-0.18,0.11-0.32,0.15-0.45l0.02-0.06l0.02-0.05
			c0.03-0.07,0.07-0.18,0.12-0.3c0.39-0.93,0.91-1.77,1.57-2.5c0.55-0.61,1.2-1.16,1.95-1.62l36.34-22.67l0.08-0.05l0.08-0.05
			c0.61-0.35,2.48-1.43,4.82-1.43c1.68,0,3.31,0.5,4.99,1.53l0.03,0.02l0.03,0.02l7.34,4.64V17.75c0-6.82-5.52-12.43-12.34-12.43
			H17.66c-6.81,0-12.34,5.52-12.34,12.34v61.56C5.32,86.04,10.85,91.56,17.66,91.56z"/>
		<g>
			<path class="st1" d="M98.76,54.93c-0.59,1.31-1.86,2.12-3.3,2.12h-7.3v21.77c0,7.03-5.72,12.73-12.75,12.73H42.79
				c-7.03,0-12.75-5.7-12.75-12.73V57.05h-7.26c-1.45,0-2.72-0.82-3.31-2.14c-0.23-0.51-0.33-1.04-0.33-1.56
				c0-0.32,0.04-0.64,0.14-0.96c0.02-0.07,0.05-0.13,0.07-0.2c0.02-0.05,0.03-0.1,0.06-0.14c0.15-0.37,0.36-0.71,0.63-1.02
				c0.22-0.24,0.48-0.46,0.8-0.66L57.18,27.7c0.59-0.34,1.37-0.72,2.17-0.72c0.81,0,1.54,0.34,2.21,0.75l35.85,22.66
				c0.31,0.2,0.58,0.42,0.79,0.66c0.27,0.31,0.47,0.65,0.62,1.02c0.03,0.07,0.05,0.14,0.08,0.21c0.01,0.04,0.03,0.09,0.05,0.13
				c0.1,0.31,0.15,0.64,0.14,0.96C99.09,53.89,98.99,54.42,98.76,54.93z"/>
			<path d="M104.04,50.86c-0.05-0.16-0.09-0.29-0.13-0.39c-0.04-0.11-0.1-0.28-0.19-0.5c-0.38-0.91-0.89-1.73-1.53-2.45
				c-0.56-0.63-1.21-1.18-1.95-1.64L77.07,31.23v-3.35V17.75C77.07,7.96,69.15,0,59.41,0H17.66C7.92,0,0,7.92,0,17.66v61.56
				c0,9.74,7.92,17.66,17.66,17.66l57.74,0c9.97,0,18.07-8.1,18.07-18.06V62.37h1.98c3.51,0,6.71-2.06,8.15-5.26
				c0.53-1.18,0.8-2.43,0.8-3.71C104.42,52.55,104.3,51.69,104.04,50.86z M17.66,91.56c-6.81,0-12.34-5.53-12.34-12.34V17.66
				c0-6.82,5.53-12.34,12.34-12.34h41.75c6.81,0,12.34,5.61,12.34,12.43v10.12l-7.34-4.64l-0.03-0.02l-0.03-0.02
				c-1.68-1.03-3.31-1.53-4.99-1.53c-2.34,0-4.21,1.08-4.82,1.43l-0.08,0.05l-0.08,0.05L18.03,45.86c-0.74,0.47-1.4,1.01-1.95,1.62
				c-0.65,0.73-1.18,1.57-1.57,2.5c-0.05,0.13-0.09,0.23-0.12,0.3l-0.02,0.05l-0.02,0.06c-0.05,0.13-0.1,0.27-0.15,0.45
				c-0.25,0.82-0.38,1.67-0.38,2.52c-0.01,1.29,0.26,2.55,0.79,3.73c1.43,3.21,4.64,5.28,8.16,5.28h1.94v16.45
				c0,4.96,2.02,9.47,5.27,12.73H17.66z M98.76,54.93c-0.59,1.31-1.86,2.12-3.3,2.12h-7.3v21.77c0,7.03-5.72,12.74-12.75,12.74
				H42.79c-7.03,0-12.75-5.7-12.75-12.74V57.05h-7.26c-1.45,0-2.72-0.82-3.31-2.14c-0.23-0.51-0.33-1.04-0.33-1.56
				c0-0.32,0.04-0.64,0.14-0.96c0.02-0.07,0.05-0.13,0.07-0.2c0.02-0.05,0.03-0.1,0.06-0.14c0.15-0.37,0.36-0.71,0.63-1.02
				c0.22-0.24,0.48-0.46,0.8-0.66L57.18,27.7c0.59-0.34,1.37-0.72,2.17-0.72c0.81,0,1.54,0.34,2.21,0.75l35.85,22.66
				c0.31,0.2,0.58,0.42,0.79,0.66c0.27,0.31,0.47,0.65,0.62,1.02c0.03,0.07,0.05,0.14,0.08,0.21c0.01,0.04,0.03,0.09,0.05,0.13
				c0.1,0.31,0.15,0.64,0.14,0.96C99.09,53.89,98.99,54.42,98.76,54.93z"/>
		</g>
		<path d="M35.29,21.9H16.64c-1.52,0-2.76-1.23-2.76-2.76c0-1.52,1.23-2.76,2.76-2.76h18.65c1.52,0,2.76,1.23,2.76,2.76
			C38.04,20.67,36.81,21.9,35.29,21.9"/>
		<path d="M23.09,35.56h-6.54c-1.52,0-2.76-1.23-2.76-2.76c0-1.52,1.23-2.76,2.76-2.76h6.54c1.52,0,2.76,1.23,2.76,2.76
			C25.85,34.33,24.62,35.56,23.09,35.56"/>
		<path d="M50.61,62.02l-7.25-7.25c-0.96-0.96-0.28-2.6,1.07-2.6h7.26c0.84,0,1.52,0.68,1.52,1.52v7.25
			C53.21,62.3,51.57,62.98,50.61,62.02"/>
		<path d="M69.14,62l-7.25-7.25c-0.96-0.96-0.28-2.6,1.07-2.6h7.26c0.84,0,1.52,0.68,1.52,1.52v7.25
			C71.74,62.28,70.1,62.96,69.14,62"/>
		<path d="M69.14,80.64l-7.25-7.25c-0.96-0.96-0.28-2.6,1.07-2.6h7.26c0.84,0,1.52,0.68,1.52,1.52v7.25
			C71.74,80.92,70.1,81.6,69.14,80.64"/>
	</g>
	<path d="M173.23,13.61c0-3.85,3.02-6.8,6.79-6.8c3.78,0,6.8,2.94,6.8,6.8v30.65c0,3.93-3.02,6.8-6.8,6.8
		c-3.77,0-6.79-2.87-6.79-6.8V13.61z M186.82,85.81c0,3.77-3.02,6.8-6.8,6.8c-3.77,0-6.79-3.02-6.79-6.8V64.93H146.3
		c-2.94,0-5.28-2.34-5.28-5.28c0-2.95,2.34-5.29,5.28-5.29h34.1c3.32,0,6.42,2.49,6.42,6.42V85.81z M124.15,35.89
		c6.72-2.72,13.14-8.23,13.36-16.46h-11.7c-2.95,0-5.28-2.19-5.28-5.29c0-3.25,2.34-5.44,5.28-5.44h36.43
		c3.25,0,5.44,2.19,5.44,5.44c0,3.1-2.19,5.29-5.44,5.29h-11.13c0.15,7.85,6.57,13.74,13.36,16.46c2.04,0.83,3.62,2.72,3.62,5.74
		c0,3.4-2.49,6.04-6.04,6.04c-0.98,0-2.04-0.23-2.94-0.6c-5.44-2.19-11.1-6.49-14.72-12.46c-3.62,6.34-9.36,10.19-14.87,12.46
		c-0.91,0.38-1.96,0.6-2.94,0.6c-3.55,0-6.04-2.64-6.04-6.04C120.53,38.6,122.12,36.72,124.15,35.89"/>
	<path d="M250.24,13.61c0-3.85,3.02-6.8,6.79-6.8c3.77,0,6.8,2.95,6.8,6.8v9.35h4.08c2.94,0,5.28,2.34,5.28,5.29
		c0,2.94-2.34,5.28-5.28,5.28h-4.08v10.73c0,3.93-3.02,6.8-6.8,6.8c-3.77,0-6.79-2.87-6.79-6.8V13.61z M227.51,30.25H213.7V40.8
		h13.82V30.25z M205.62,51.07c-2.87,0-5.21-2.34-5.21-5.21V9.52c0-3.77,2.94-6.64,6.64-6.64c3.7,0,6.64,2.87,6.64,6.64v10.61h13.82
		V9.52c0-3.77,2.95-6.64,6.64-6.64s6.64,2.87,6.64,6.64v36.33c0,2.87-2.34,5.21-5.21,5.21H205.62z M245.83,64.02
		c-4.78,0-8.66,3.89-8.66,8.66c0,4.78,3.89,8.66,8.66,8.66c4.78,0,8.66-3.89,8.66-8.66C254.5,67.91,250.61,64.02,245.83,64.02
		 M245.83,93.21c-11.32,0-20.53-9.21-20.53-20.53c0-11.32,9.21-20.53,20.53-20.53s20.53,9.21,20.53,20.53
		C266.36,84,257.15,93.21,245.83,93.21"/>
</g>
</svg>
