<?xml version="1.0" encoding="utf-8"?>
<!-- Generator: Adobe Illustrator 24.3.0, SVG Export Plug-In . SVG Version: 6.00 Build 0)  -->
<svg version="1.1" id="Layer_1" xmlns="http://www.w3.org/2000/svg" xmlns:xlink="http://www.w3.org/1999/xlink" x="0px" y="0px"
	 viewBox="0 0 959 540" style="enable-background:new 0 0 959 540;" xml:space="preserve">
<style type="text/css">
	.st0{fill:#FFFFFF;}
	.st1{fill:#FFA400;}
	.st2{fill:none;}
	.st3{fill:#FFFAF2;}
</style>
<polyline class="st0" points="959,0 959,540 0,540 0,0 "/>
<g>
	<path class="st1" d="M42.92,0H0v42.92C0,19.31,19.31,0,42.92,0z"/>
    <path class="st1" d="M916.08,540H959v-42.92C959,520.69,939.69,540,916.08,540z"/>
</g>
<g>
	<path class="st2" d="M710.26,517.17c-11.15-4.1-21.17-10.02-29.94-17.99c-9.09-8.26-16.34-18.12-21.52-29.33l-35.04-75.71
		l-8.03,3.72c-8.38,3.88-17.54,5.14-26.49,3.65c-8.23-1.37-15.93-5.03-22.29-10.56c-6.33-5.51-11.02-12.63-13.55-20.58
		c-2.77-8.71-2.82-17.94-0.15-26.7c1.22-4.01,3.07-7.91,5.49-11.62l118.31-180.77c4.65-8.07,11.78-14.61,20.25-18.53
		c8.56-3.96,17.81-5.18,27.07-3.43l43.19,5.62l-21.58-46.62c-14.51-31.35-51.87-45.4-83.22-30.89l-192.04,88.89
		c-31.35,14.51-45,51.69-30.49,83.04L571.3,512.56c5.48,11.84,14.19,21.15,24.6,27.37h65.16L710.26,517.17z M482.77,217.96
		c-3.24-7-0.2-15.31,6.8-18.55l85.79-39.71c7-3.24,15.31-0.19,18.55,6.81c3.24,7,0.19,15.31-6.81,18.55l-85.79,39.71
		C494.32,228.01,486.01,224.96,482.77,217.96z M511.47,281c-3.24-7-0.19-15.31,6.81-18.55l30.09-13.93c7-3.24,15.31-0.19,18.55,6.81
		c3.24,7,0.19,15.31-6.81,18.55l-30.09,13.93C523.02,291.05,514.71,288,511.47,281z"/>
	<path class="st2" d="M951.53,334.36L905.16,234.2l33.58-15.54c6.65-3.08,10.74-9.51,10.66-16.81c-0.03-2.82-0.65-5.49-1.78-7.88
		c-0.66-1.5-1.56-2.89-2.68-4.12c-0.15-0.18-0.34-0.33-0.5-0.5c-0.27-0.27-0.53-0.56-0.83-0.81c-1.45-1.36-3.12-2.51-5.03-3.35
		c-1.51-0.66-3.21-1.11-5.06-1.35l-213.15-27.89c-3.96-0.46-8.06-0.44-11.76,1.27c-3.67,1.7-6.43,5.09-8.43,7.93l-118.9,181.67
		c-1.04,1.6-1.78,3.14-2.26,4.72c-0.61,2.01-0.83,4.05-0.74,6.05c0,0.27,0.04,0.52,0.06,0.79c0.03,0.36,0.03,0.72,0.09,1.07
		c0.21,1.65,0.67,3.23,1.38,4.7c1.08,2.42,2.7,4.63,4.84,6.49c5.51,4.8,13.08,5.87,19.75,2.78l33.41-15.46l46.36,100.17
		c14.97,32.34,53.43,46.41,85.78,31.43l150.03-69.44C952.33,405.13,966.5,366.71,951.53,334.36z M743.02,337.02L694.2,319.1
		c-6.45-2.37-6.82-11.35-0.58-14.23l33.38-15.45c3.86-1.79,8.45-0.1,10.23,3.76l15.45,33.37
		C755.56,332.78,749.46,339.39,743.02,337.02z M778.81,265.31l33.38-15.45c3.86-1.79,8.45-0.1,10.23,3.76l15.45,33.37
		c2.88,6.23-3.21,12.84-9.66,10.48l-48.82-17.92C772.95,277.18,772.58,268.2,778.81,265.31z M867.89,383.19l-48.82-17.92
		c-6.45-2.37-6.82-11.35-0.59-14.23l33.38-15.45c3.86-1.79,8.45-0.1,10.24,3.76l15.45,33.37
		C880.43,378.94,874.34,385.56,867.89,383.19z"/>
	<path class="st2" d="M941.61,247.02l17.41,37.61v-46.98c-2.74,2.13-5.74,3.97-8.96,5.46L941.61,247.02z"/>
	<path class="st3" d="M593.92,166.51c-3.24-7-11.55-10.05-18.55-6.81l-85.79,39.71c-7,3.24-10.05,11.54-6.8,18.55
		c3.24,7,11.54,10.05,18.54,6.81l85.79-39.71C594.11,181.82,597.16,173.52,593.92,166.51z"/>
	<path class="st3" d="M566.91,255.33c-3.24-7-11.55-10.05-18.55-6.81l-30.09,13.93c-7,3.24-10.05,11.55-6.81,18.55
		c3.24,7,11.55,10.05,18.55,6.81l30.09-13.93C567.11,270.64,570.16,262.34,566.91,255.33z"/>
	<path class="st3" d="M737.23,293.17c-1.79-3.86-6.37-5.54-10.23-3.76l-33.38,15.45c-6.23,2.89-5.87,11.86,0.58,14.23l48.82,17.93
		c6.44,2.37,12.54-4.24,9.65-10.48L737.23,293.17z"/>
	<path class="st3" d="M837.87,286.99l-15.45-33.37c-1.79-3.86-6.37-5.54-10.23-3.76l-33.38,15.45c-6.23,2.88-5.86,11.86,0.59,14.23
		l48.82,17.92C834.67,299.83,840.76,293.22,837.87,286.99z"/>
	<path class="st3" d="M862.1,339.34c-1.79-3.86-6.37-5.55-10.24-3.76l-33.38,15.45c-6.23,2.88-5.86,11.86,0.59,14.23l48.82,17.92
		c6.45,2.37,12.54-4.25,9.66-10.48L862.1,339.34z"/>
	<path class="st3" d="M941.61,247.02l8.45-3.91c3.22-1.49,6.22-3.33,8.96-5.46v-71.37c-2.93-2.29-6.13-4.24-9.6-5.76
		c-3.83-1.69-8.01-2.83-12.4-3.41l-137.13-17.94l-28.53-61.64c-5.19-11.21-12.43-21.08-21.52-29.34
		c-8.77-7.96-18.87-14.07-30.02-18.17c-11.15-4.1-22.81-5.97-34.65-5.58c-12.28,0.41-24.36,2.85-35.57,8.04l-189.37,87.65
		c-11.2,5.19-21.08,12.43-29.33,21.52c-7.96,8.77-14.08,18.87-18.18,30.03c-4.09,11.16-5.97,22.81-5.57,34.65
		c0.41,12.27,3.25,24.18,8.44,35.38l130.2,281.29c2.8,6.05,6.22,11.69,10.18,16.92h39.95c-10.41-6.23-19.13-15.54-24.6-27.37
		L440.22,229.37c-14.51-31.35-0.86-68.53,30.49-83.04l192.04-88.89c31.35-14.51,68.71-0.46,83.22,30.89l21.58,46.62l-43.19-5.62
		c-9.25-1.75-18.51-0.53-27.07,3.43c-8.47,3.92-15.6,10.46-20.25,18.53L558.74,332.05c-2.42,3.7-4.27,7.61-5.49,11.62
		c-2.68,8.76-2.62,17.99,0.15,26.7c2.53,7.95,7.22,15.07,13.55,20.58c6.36,5.53,14.07,9.19,22.29,10.56
		c8.95,1.5,18.1,0.23,26.49-3.65l8.03-3.72l35.04,75.71c5.19,11.21,12.43,21.07,21.52,29.33c8.77,7.97,18.79,13.89,29.94,17.99
		l-49.19,22.76h66.29l207.74-95.97c9.96-4.61,16.74-9.87,23.92-17.35V284.63L941.61,247.02z M919.98,420.1l-150.03,69.44
		c-32.35,14.97-70.81,0.91-85.78-31.43l-46.36-100.17l-33.41,15.46c-6.67,3.09-14.24,2.02-19.75-2.78
		c-2.14-1.86-3.76-4.08-4.84-6.49c-0.71-1.46-1.17-3.05-1.38-4.7c-0.06-0.35-0.06-0.71-0.09-1.07c-0.02-0.27-0.06-0.52-0.06-0.79
		c-0.09-2.01,0.13-4.04,0.74-6.05c0.48-1.59,1.23-3.13,2.26-4.72l118.9-181.67c2.01-2.84,4.77-6.23,8.43-7.93
		c3.7-1.71,7.8-1.74,11.76-1.27l213.15,27.89c1.85,0.24,3.55,0.69,5.06,1.35c1.91,0.84,3.58,1.99,5.03,3.35
		c0.3,0.25,0.55,0.54,0.83,0.81c0.16,0.17,0.34,0.32,0.5,0.5c1.12,1.24,2.02,2.63,2.68,4.12c1.13,2.39,1.76,5.06,1.78,7.88
		c0.07,7.29-4.01,13.73-10.66,16.81l-33.58,15.54l46.36,100.17C966.5,366.71,952.33,405.13,919.98,420.1z"/>
</g>
</svg>
